<?xml version="1.0" encoding="UTF-8"?>
<svg width="14px" height="14px" viewBox="0 0 14 14" version="1.1" xmlns="http://www.w3.org/2000/svg" xmlns:xlink="http://www.w3.org/1999/xlink">
    <!-- Generator: sketchtool 54.1 (76490) - https://sketchapp.com -->
    <title>0DB21554-2472-4A62-9EA1-D405DC11E152@SVG</title>
    <desc>Created with sketchtool.</desc>
    <g id="Enquire" stroke="none" stroke-width="1" fill="none" fill-rule="evenodd">
        <g id="Web-assets" transform="translate(-139.000000, -84.000000)" fill="#861F41" fill-rule="nonzero">
            <g id="Icons/Add" transform="translate(138.000000, 83.000000)">
                <path d="M9.18848519,8.00002348 L12.7538527,4.43465175 C13.0820491,4.10645501 13.0820491,3.57434431 12.7538527,3.24619451 C12.4256564,2.91799777 11.8935932,2.91799777 11.5653969,3.24619451 L7.99998239,6.81161319 L4.4345679,3.24614756 C4.10637154,2.91795081 3.57430842,2.91795081 3.24611206,3.24614756 C2.91796265,3.57434431 2.91796265,4.10645501 3.24611206,4.4346048 L6.81152655,7.99997652 L3.24611206,11.5653952 C2.91796265,11.8935919 2.91796265,12.4257026 3.24611206,12.7538524 C3.57430842,13.0820492 4.10637154,13.0820492 4.4345679,12.7538524 L7.99998239,9.18843376 L11.5653969,12.7538524 C11.8935463,13.0820492 12.4256564,13.0820492 12.7538527,12.7538524 C13.0820491,12.4256557 13.0820491,11.8935919 12.7538527,11.5653952 L9.18848519,8.00002348 Z" id="Path" transform="translate(8.000000, 8.000000) rotate(45.000000) translate(-8.000000, -8.000000) "></path>
            </g>
        </g>
    </g>
</svg>