<?xml version="1.0" encoding="UTF-8"?>
<svg width="22px" height="22px" viewBox="0 0 22 22" version="1.1" xmlns="http://www.w3.org/2000/svg" xmlns:xlink="http://www.w3.org/1999/xlink">
    <!-- Generator: Sketch 54.1 (76490) - https://sketchapp.com -->
    <title>Approve@SVG</title>
    <desc>Created with Sketch.</desc>
    <g id="Enquire" stroke="none" stroke-width="1" fill="none" fill-rule="evenodd">
        <g id="Web-assets" transform="translate(-78.000000, -135.000000)" fill="#C8C8C8" fill-rule="nonzero">
            <g id="Approve" transform="translate(79.000000, 136.000000)">
                <path d="M9.94678571,0 C4.46214286,0 0,4.46214286 0,9.94678571 C0,15.4314286 4.46214286,19.8935714 9.94678571,19.8935714 C15.4314286,19.8935714 19.8935714,15.4314286 19.8935714,9.94678571 C19.8932143,4.46214286 15.4314286,0 9.94678571,0 Z M9.94678571,18.2903571 C5.34607143,18.2903571 1.60321429,14.5475 1.60321429,9.94642857 C1.60321429,5.34571429 5.34607143,1.60285714 9.94678571,1.60285714 C14.5475,1.60285714 18.2903571,5.34607143 18.2903571,9.94678571 C18.2903571,14.5475 14.5475,18.2903571 9.94678571,18.2903571 Z" id="Shape" stroke="#323232" stroke-width="0.7"></path>
                <path d="M13.1175,6.775 L8.47464286,11.4182143 L6.77571429,9.71928571 C6.46285714,9.40607143 5.95535714,9.40607143 5.6425,9.71928571 C5.32928571,10.0321429 5.32928571,10.5396429 5.6425,10.8525 L7.90821429,13.1182143 C8.06464286,13.2746429 8.27,13.3532143 8.475,13.3532143 C8.68,13.3532143 8.885,13.275 9.04142857,13.1182143 L14.2510714,7.90857143 C14.5639286,7.59535714 14.5639286,7.08821429 14.2510714,6.775 C13.9378571,6.46214286 13.4307143,6.46214286 13.1175,6.775 Z" id="Path"></path>
            </g>
        </g>
    </g>
</svg>