<?xml version="1.0" encoding="UTF-8"?>
<svg width="17px" height="16px" viewBox="0 0 17 16" version="1.1" xmlns="http://www.w3.org/2000/svg" xmlns:xlink="http://www.w3.org/1999/xlink">
    <!-- Generator: sketchtool 54.1 (76490) - https://sketchapp.com -->
    <title>E86FB57C-CD50-4E42-AE2A-DE9E05C207DF@SVG</title>
    <desc>Created with sketchtool.</desc>
    <defs>
        <path d="M1.23076923,14.8571429 L4,14.8571429 L4,12.2857143 L1.23076923,12.2857143 L1.23076923,14.8571429 Z M4.61538462,14.8571429 L7.69230769,14.8571429 L7.69230769,12.2857143 L4.61538462,12.2857143 L4.61538462,14.8571429 Z M1.23076923,11.7142857 L4,11.7142857 L4,8.85714286 L1.23076923,8.85714286 L1.23076923,11.7142857 Z M4.61538462,11.7142857 L7.69230769,11.7142857 L7.69230769,8.85714286 L4.61538462,8.85714286 L4.61538462,11.7142857 Z M1.23076923,8.28571429 L4,8.28571429 L4,5.71428571 L1.23076923,5.71428571 L1.23076923,8.28571429 Z M8.30769231,14.8571429 L11.3846154,14.8571429 L11.3846154,12.2857143 L8.30769231,12.2857143 L8.30769231,14.8571429 Z M4.61538462,8.28571429 L7.69230769,8.28571429 L7.69230769,5.71428571 L4.61538462,5.71428571 L4.61538462,8.28571429 Z M12,14.8571429 L14.7692308,14.8571429 L14.7692308,12.2857143 L12,12.2857143 L12,14.8571429 Z M8.30769231,11.7142857 L11.3846154,11.7142857 L11.3846154,8.85714286 L8.30769231,8.85714286 L8.30769231,11.7142857 Z M4.92307692,4 L4.92307692,1.42857143 C4.92307692,1.35119009 4.89262851,1.28422647 4.83173077,1.22767857 C4.77083303,1.17113067 4.69871837,1.14285714 4.61538462,1.14285714 L4,1.14285714 C3.91666625,1.14285714 3.84455159,1.17113067 3.78365385,1.22767857 C3.72275611,1.28422647 3.69230769,1.35119009 3.69230769,1.42857143 L3.69230769,4 C3.69230769,4.07738134 3.72275611,4.14434496 3.78365385,4.20089286 C3.84455159,4.25744076 3.91666625,4.28571429 4,4.28571429 L4.61538462,4.28571429 C4.69871837,4.28571429 4.77083303,4.25744076 4.83173077,4.20089286 C4.89262851,4.14434496 4.92307692,4.07738134 4.92307692,4 Z M12,11.7142857 L14.7692308,11.7142857 L14.7692308,8.85714286 L12,8.85714286 L12,11.7142857 Z M8.30769231,8.28571429 L11.3846154,8.28571429 L11.3846154,5.71428571 L8.30769231,5.71428571 L8.30769231,8.28571429 Z M12,8.28571429 L14.7692308,8.28571429 L14.7692308,5.71428571 L12,5.71428571 L12,8.28571429 Z M12.3076923,4 L12.3076923,1.42857143 C12.3076923,1.35119009 12.2772439,1.28422647 12.2163462,1.22767857 C12.1554484,1.17113067 12.0833338,1.14285714 12,1.14285714 L11.3846154,1.14285714 C11.3012816,1.14285714 11.229167,1.17113067 11.1682692,1.22767857 C11.1073715,1.28422647 11.0769231,1.35119009 11.0769231,1.42857143 L11.0769231,4 C11.0769231,4.07738134 11.1073715,4.14434496 11.1682692,4.20089286 C11.229167,4.25744076 11.3012816,4.28571429 11.3846154,4.28571429 L12,4.28571429 C12.0833338,4.28571429 12.1554484,4.25744076 12.2163462,4.20089286 C12.2772439,4.14434496 12.3076923,4.07738134 12.3076923,4 Z M16,3.42857143 L16,14.8571429 C16,15.1666682 15.8782063,15.4345227 15.6346154,15.6607143 C15.3910244,15.8869059 15.1025658,16 14.7692308,16 L1.23076923,16 C0.897434231,16 0.608975577,15.8869059 0.365384615,15.6607143 C0.121793654,15.4345227 3.01980663e-14,15.1666682 3.01980663e-14,14.8571429 L3.01980663e-14,3.42857143 C3.01980663e-14,3.11904607 0.121793654,2.85119161 0.365384615,2.625 C0.608975577,2.39880839 0.897434231,2.28571429 1.23076923,2.28571429 L2.46153846,2.28571429 L2.46153846,1.42857143 C2.46153846,1.03571232 2.61217798,0.699406161 2.91346154,0.419642857 C3.2147451,0.139879554 3.57692096,0 4,0 L4.61538462,0 C5.03846365,0 5.40063952,0.139879554 5.70192308,0.419642857 C6.00320663,0.699406161 6.15384615,1.03571232 6.15384615,1.42857143 L6.15384615,2.28571429 L9.84615385,2.28571429 L9.84615385,1.42857143 C9.84615385,1.03571232 9.99679337,0.699406161 10.2980769,0.419642857 C10.5993605,0.139879554 10.9615363,0 11.3846154,0 L12,0 C12.423079,0 12.7852549,0.139879554 13.0865385,0.419642857 C13.387822,0.699406161 13.5384615,1.03571232 13.5384615,1.42857143 L13.5384615,2.28571429 L14.7692308,2.28571429 C15.1025658,2.28571429 15.3910244,2.39880839 15.6346154,2.625 C15.8782063,2.85119161 16,3.11904607 16,3.42857143 Z" id="path-1"></path>
    </defs>
    <g id="Enquire" stroke="none" stroke-width="1" fill="none" fill-rule="evenodd">
        <g id="Web-assets" transform="translate(-611.000000, -26.000000)">
            <g id="Icons/Calender" transform="translate(611.500000, 26.000000)">
                <mask id="mask-2" fill="white">
                    <use xlink:href="#path-1"></use>
                </mask>
                <use id="Mask" fill="#861F41" fill-rule="evenodd" xlink:href="#path-1"></use>
            </g>
        </g>
    </g>
</svg>