<?xml version="1.0" encoding="UTF-8"?>
<svg width="16px" height="16px" viewBox="0 0 16 16" version="1.1" xmlns="http://www.w3.org/2000/svg" xmlns:xlink="http://www.w3.org/1999/xlink">
    <!-- Generator: sketchtool 54.1 (76490) - https://sketchapp.com -->
    <title>BB81FFB9-3BAE-42BF-9CBF-09105807DE78@SVG</title>
    <desc>Created with sketchtool.</desc>
    <g id="Enquire" stroke="none" stroke-width="1" fill="none" fill-rule="evenodd">
        <g id="Web-assets" transform="translate(-212.000000, -83.000000)">
            <g id="Icons/Close/16-" transform="translate(212.000000, 83.000000)">
                <rect id="Rectangle" stroke="#861F41" stroke-width="1" fill="#FFFFFF" fill-rule="evenodd" x="0.5" y="0.5" width="15" height="15" rx="3"></rect>
                <path d="M8.95078815,8.00001878 L11.8030822,5.1477214 C12.0656393,4.885164 12.0656393,4.45947545 11.8030822,4.19695561 C11.5405251,3.93439821 11.1148746,3.93439821 10.8523175,4.19695561 L7.99998591,7.04929055 L5.14765432,4.19691805 C4.88509723,3.93436065 4.45944674,3.93436065 4.19688965,4.19691805 C3.93437012,4.45947545 3.93437012,4.885164 4.19688965,5.14768384 L7.04922124,7.99998122 L4.19688965,10.8523162 C3.93437012,11.1148736 3.93437012,11.5405621 4.19688965,11.803082 C4.45944674,12.0656393 4.88509723,12.0656393 5.14765432,11.803082 L7.99998591,8.95074701 L10.8523175,11.803082 C11.114837,12.0656393 11.5405251,12.0656393 11.8030822,11.803082 C12.0656393,11.5405246 12.0656393,11.1148736 11.8030822,10.8523162 L8.95078815,8.00001878 Z" id="Path" fill="#861F41" fill-rule="nonzero"></path>
            </g>
        </g>
    </g>
</svg>