<?xml version="1.0" encoding="UTF-8"?>
<svg width="12px" height="16px" viewBox="0 0 12 16" version="1.1" xmlns="http://www.w3.org/2000/svg" xmlns:xlink="http://www.w3.org/1999/xlink">
    <!-- Generator: sketchtool 54.1 (76490) - https://sketchapp.com -->
    <title>A606F80A-43BE-40BC-8FAC-99A9C7E2C0D7@SVG</title>
    <desc>Created with sketchtool.</desc>
    <g id="Enquire" stroke="none" stroke-width="1" fill="none" fill-rule="evenodd">
        <g id="Web-assets" transform="translate(-400.000000, -31.000000)" fill="#861F41" fill-rule="nonzero">
            <g id="Icons/Trash/Active" transform="translate(398.000000, 31.000000)">
                <path d="M3.66528174,14.9140482 C3.66528174,14.9140482 3.90902165,16 5.16362085,16 L10.8363792,16 C12.0909174,16 12.3346573,14.9140482 12.3346573,14.9140482 L13.4545565,4.2666905 L2.54544346,4.2666905 L3.66528174,14.9140482 Z M10.1818348,5.86671434 C10.1818348,5.57213308 10.4260014,5.33339293 10.7272783,5.33339293 C11.0285552,5.33339293 11.2727827,5.57213308 11.2727827,5.86671434 L10.7272783,13.8667143 C10.7272783,14.1612956 10.4830508,14.4000358 10.1818348,14.4000358 C9.88061885,14.4000358 9.63639134,14.161236 9.63639134,13.8667143 L10.1818348,5.86671434 Z M7.45455654,5.86671434 C7.45455654,5.57213308 7.69878404,5.33339293 8,5.33339293 C8.30127691,5.33339293 8.54544346,5.57213308 8.54544346,5.86671434 L8.54544346,13.8667143 C8.54544346,14.1612956 8.30127691,14.4000358 8,14.4000358 C7.69872309,14.4000358 7.45455654,14.161236 7.45455654,13.8667143 L7.45455654,5.86671434 Z M5.27272173,5.33333333 C5.57399864,5.33333333 5.8181652,5.57207348 5.8181652,5.86665475 L6.36366961,13.8666547 C6.36366961,14.161236 6.1194421,14.3999762 5.8181652,14.3999762 C5.51694924,14.3999762 5.27272173,14.1611764 5.27272173,13.8666547 L4.72727827,5.86671434 C4.72727827,5.57213308 4.97150578,5.33333333 5.27272173,5.33333333 Z M13.1272539,2.13417959 L10.7272783,2.13417959 L10.7272783,1.06670242 C10.7272783,0.257572371 10.4596459,0 9.63639134,0 L6.36360866,0 C5.60849646,0 5.27272173,0.357633457 5.27272173,1.06670242 L5.27272173,2.13423919 L2.87274611,2.13423919 C2.39038612,2.13423919 2,2.49223022 2,2.93460868 C2,3.37704674 2.39038612,3.73503777 2.87274611,3.73503777 L13.1272539,3.73503777 C13.6096139,3.73503777 14,3.37704674 14,2.93460868 C14,2.49223022 13.6096139,2.13417959 13.1272539,2.13417959 Z M9.63639134,2.13417959 L6.36366961,2.13417959 L6.36373056,1.06664283 L9.63645229,1.06664283 L9.63645229,2.13417959 L9.63639134,2.13417959 Z" id="Shape"></path>
            </g>
        </g>
    </g>
</svg>