<?xml version="1.0" encoding="UTF-8"?>
<svg width="20px" height="18px" viewBox="0 0 20 18" version="1.1" xmlns="http://www.w3.org/2000/svg" xmlns:xlink="http://www.w3.org/1999/xlink">
    <!-- Generator: sketchtool 54.1 (76490) - https://sketchapp.com -->
    <title>8763433E-A07B-4EBB-A00E-363BB0CFF27F@SVG</title>
    <desc>Created with sketchtool.</desc>
    <g id="Enquire" stroke="none" stroke-width="1" fill="none" fill-rule="evenodd">
        <g id="Web-assets" transform="translate(-508.000000, -30.000000)" fill="#861F41" fill-rule="nonzero" stroke="#861F41" stroke-width="0.5">
            <g id="Icons/Download" transform="translate(509.000000, 31.000000)">
                <path d="M17.5417734,10.9847467 C17.2887539,10.9847467 17.0835469,11.1922844 17.0835469,11.4481778 L17.0835469,13.2189867 C17.0835469,14.2411022 16.2613125,15.0726756 15.2506758,15.0726756 L2.74932422,15.0726756 C1.7386875,15.0726756 0.916453125,14.2411022 0.916453125,13.2189867 L0.916453125,11.4481778 C0.916453125,11.1922844 0.711316406,10.9847467 0.458226563,10.9847467 C0.205136719,10.9847467 0,11.1922489 0,11.4481778 L0,13.2189867 C0,14.7521778 1.23335156,15.9995378 2.74932422,15.9995378 L15.2506758,15.9995378 C16.7666484,15.9995378 18,14.7521778 18,13.2189867 L18,11.4481778 C18,11.1922489 17.7948633,10.9847467 17.5417734,10.9847467 Z" id="Path"></path>
                <path d="M14.7597539,12.3 L3.24024609,12.3 C2.98722656,12.3 2.78201953,12.5075378 2.78201953,12.7634311 C2.78201953,13.0193244 2.98715625,13.2268622 3.24024609,13.2268622 L14.7597188,13.2268622 C15.0128086,13.2268622 15.2179453,13.0193956 15.2179453,12.7634311 C15.2179453,12.5075378 15.0128086,12.3 14.7597539,12.3 Z" id="Path"></path>
                <path d="M13.6377773,6.29084444 C13.4692031,6.10001778 13.1795508,6.08341333 12.9907617,6.25393778 L9.45819141,9.44558222 L9.45819141,0.463928889 C9.45819141,0.208035556 9.25305469,0.000497777778 8.99996484,0.000497777778 C8.74694531,0.000497777778 8.54173828,0.207964444 8.54173828,0.463928889 L8.54173828,9.44558222 L5.00916797,6.25397333 C4.82048438,6.08344889 4.53079688,6.10008889 4.36215234,6.29088 C4.19361328,6.48177778 4.20989062,6.77475556 4.39860938,6.94524444 L8.23675781,10.4128711 C8.45426953,10.6094578 8.72704688,10.7076978 8.99992969,10.7076978 C9.27270703,10.7076978 9.54551953,10.6094578 9.76310156,10.4129778 L13.60125,6.94524444 C13.7900391,6.77464889 13.8063516,6.48167111 13.6377773,6.29084444 Z" id="Path"></path>
            </g>
        </g>
    </g>
</svg>