<?xml version="1.0" encoding="UTF-8"?>
<svg width="16px" height="16px" viewBox="0 0 16 16" version="1.1" xmlns="http://www.w3.org/2000/svg" xmlns:xlink="http://www.w3.org/1999/xlink">
    <!-- Generator: sketchtool 54.1 (76490) - https://sketchapp.com -->
    <title>36807B7A-9A64-43D9-911C-CE6D812B8A53@SVG</title>
    <desc>Created with sketchtool.</desc>
    <g id="Enquire" stroke="none" stroke-width="1" fill="none" fill-rule="evenodd">
        <g id="Web-assets" transform="translate(-547.000000, -31.000000)" fill="#861F41" fill-rule="nonzero">
            <g id="Icons/Edit" transform="translate(547.000000, 31.000000)">
                <path d="M15.3317727,9.72483554 C15.1004245,9.72483554 14.9129245,9.91332236 14.9129245,10.1458882 L14.9129245,13.8845395 C14.9121064,14.5817434 14.5404123,14.9053394 13.846695,14.9061618 L2.09424084,14.9061618 C1.40052356,14.9053394 1.09214958,14.5817434 1.09133153,13.8845395 L1.09133153,2.91233554 C1.09214958,2.21496712 1.40052356,1.65 2.09424084,1.64917764 L5.81315443,1.64917764 C6.04450262,1.64917764 6.2320026,1.46069078 6.2320026,1.22812501 C6.2320026,0.9955592 6.04450262,0.807072379 5.81315443,0.807072379 L2.09424084,0.807072379 C0.938154471,0.808388168 0.254944094,1.75016446 0.253635193,2.91233554 L0.253635193,13.8845395 C0.254944094,15.0467105 0.938154471,15.7469513 2.09424084,15.7482671 L13.846695,15.7482671 C15.0027814,15.7469513 15.749312,15.0467105 15.7506209,13.8845395 L15.7506209,10.1460526 C15.7506209,9.91348682 15.5631208,9.72483554 15.3317727,9.72483554 Z" id="Path" stroke="#861F41" stroke-width="0.5"></path>
                <polygon id="Path" points="6.54941102 7.50921053 12.6650851 1.36118421 14.6374346 3.34391448 8.52176046 9.4919408"></polygon>
                <polygon id="Path" points="5.55153797 10.4950658 7.73118454 9.88815789 6.15526831 8.30394737"></polygon>
                <path d="M15.1827552,0.319078947 C14.7735602,-0.0912829053 14.1110929,-0.0912829053 13.7018979,0.319078947 L13.2576898,0.765625011 L15.2300393,2.74835528 L15.6742474,2.30180922 C16.0826243,1.89046055 16.0826243,1.22450657 15.6742474,0.813157895 L15.1827552,0.319078947 Z" id="Path"></path>
            </g>
        </g>
    </g>
</svg>