<?xml version="1.0" encoding="UTF-8"?>
<svg width="17px" height="14px" viewBox="0 0 17 14" version="1.1" xmlns="http://www.w3.org/2000/svg" xmlns:xlink="http://www.w3.org/1999/xlink">
    <!-- Generator: Sketch 54.1 (76490) - https://sketchapp.com -->
    <title>Enquire@SVG</title>
    <desc>Created with Sketch.</desc>
    <g id="Enquire" stroke="none" stroke-width="1" fill="none" fill-rule="evenodd">
        <g id="Web-assets" transform="translate(-127.000000, -139.000000)" fill="#C8C8C8" fill-rule="nonzero">
            <path d="M143.364625,139 L127.635094,139 C127.284713,139 127,139.262881 127,139.585525 L127,152.41454 C127,152.612756 127.108026,152.787566 127.272143,152.893686 L127.272143,152.985976 L127.49992,152.985976 C127.543617,152.994806 127.588581,153 127.635094,153 L143.365012,153 C143.411419,153 143.456383,152.994838 143.499868,152.985976 L143.5311,152.985976 L143.5311,152.977179 C143.800602,152.909235 144,152.683978 144,152.414573 L144,139.585687 C144.000035,139.262881 143.715076,139 143.364625,139 Z M136.622553,149.585366 L136.622553,152.040943 L131.144164,152.040943 L131.144164,149.585366 L136.622553,149.585366 Z M131.144164,148.877092 L131.144164,146.220891 L136.622505,146.220891 L136.622505,148.877092 L131.144164,148.877092 Z M137.361269,152.040943 L137.361269,149.585366 L143.027935,149.585366 L143.027935,152.040943 L137.361269,152.040943 Z M137.361269,148.877092 L137.361269,146.220891 L143.027935,146.220891 L143.027935,148.877092 L137.361269,148.877092 Z M137.361269,145.512616 L137.361269,142.915411 L143.027935,142.915411 L143.027935,145.512616 L137.361269,145.512616 Z M137.361269,142.207045 L137.361269,139.707954 L143.027935,139.707954 L143.027935,142.207045 L137.361269,142.207045 Z M136.622553,142.207045 L131.144164,142.207045 L131.144164,139.707954 L136.622553,139.707954 L136.622553,142.207045 L136.622553,142.207045 Z M136.622553,142.915411 L136.622553,145.512616 L131.144164,145.512616 L131.144164,142.915411 L136.622553,142.915411 L136.622553,142.915411 Z M130.405735,145.512616 L127.738333,145.512616 L127.738333,142.915411 L130.405735,142.915411 L130.405735,145.512616 Z M130.405735,146.220891 L130.405735,148.877092 L127.738333,148.877092 L127.738333,146.220891 L130.405735,146.220891 Z M130.405735,149.585366 L130.405735,152.040943 L127.738333,152.040943 L127.738333,149.585366 L130.405735,149.585366 Z" id="Enquire"></path>
        </g>
    </g>
</svg>