<?xml version="1.0" encoding="UTF-8"?>
<svg width="17px" height="14px" viewBox="0 0 17 14" version="1.1" xmlns="http://www.w3.org/2000/svg" xmlns:xlink="http://www.w3.org/1999/xlink">
    <!-- Generator: Sketch 54.1 (76490) - https://sketchapp.com -->
    <title>Enquire active@SVG</title>
    <desc>Created with Sketch.</desc>
    <g id="Enquire" stroke="none" stroke-width="1" fill="none" fill-rule="evenodd">
        <g id="Web-assets" transform="translate(-127.000000, -185.000000)" fill="#861F41" fill-rule="nonzero">
            <path d="M143.364625,185 L127.635094,185 C127.284713,185 127,185.262881 127,185.585525 L127,198.41454 C127,198.612756 127.108026,198.787566 127.272143,198.893686 L127.272143,198.985976 L127.49992,198.985976 C127.543617,198.994806 127.588581,199 127.635094,199 L143.365012,199 C143.411419,199 143.456383,198.994838 143.499868,198.985976 L143.5311,198.985976 L143.5311,198.977179 C143.800602,198.909235 144,198.683978 144,198.414573 L144,185.585687 C144.000035,185.262881 143.715076,185 143.364625,185 Z M136.622553,195.585366 L136.622553,198.040943 L131.144164,198.040943 L131.144164,195.585366 L136.622553,195.585366 Z M131.144164,194.877092 L131.144164,192.220891 L136.622505,192.220891 L136.622505,194.877092 L131.144164,194.877092 Z M137.361269,198.040943 L137.361269,195.585366 L143.027935,195.585366 L143.027935,198.040943 L137.361269,198.040943 Z M137.361269,194.877092 L137.361269,192.220891 L143.027935,192.220891 L143.027935,194.877092 L137.361269,194.877092 Z M137.361269,191.512616 L137.361269,188.915411 L143.027935,188.915411 L143.027935,191.512616 L137.361269,191.512616 Z M137.361269,188.207045 L137.361269,185.707954 L143.027935,185.707954 L143.027935,188.207045 L137.361269,188.207045 Z M136.622553,188.207045 L131.144164,188.207045 L131.144164,185.707954 L136.622553,185.707954 L136.622553,188.207045 L136.622553,188.207045 Z M136.622553,188.915411 L136.622553,191.512616 L131.144164,191.512616 L131.144164,188.915411 L136.622553,188.915411 L136.622553,188.915411 Z M130.405735,191.512616 L127.738333,191.512616 L127.738333,188.915411 L130.405735,188.915411 L130.405735,191.512616 Z M130.405735,192.220891 L130.405735,194.877092 L127.738333,194.877092 L127.738333,192.220891 L130.405735,192.220891 Z M130.405735,195.585366 L130.405735,198.040943 L127.738333,198.040943 L127.738333,195.585366 L130.405735,195.585366 Z" id="Enquire-active"></path>
        </g>
    </g>
</svg>