<?xml version="1.0" encoding="UTF-8"?>
<svg width="26px" height="26px" viewBox="0 0 26 26" version="1.1" xmlns="http://www.w3.org/2000/svg" xmlns:xlink="http://www.w3.org/1999/xlink">
    <!-- Generator: sketchtool 54.1 (76490) - https://sketchapp.com -->
    <title>BD0BB143-A7AD-4968-ACD2-429D209867FF@SVG</title>
    <desc>Created with sketchtool.</desc>
    <g id="Enquire" stroke="none" stroke-width="1" fill="none" fill-rule="evenodd">
        <g id="Web-assets" transform="translate(-217.000000, -133.000000)" fill="#EC5F48" fill-rule="nonzero" stroke="#EC5F48" stroke-width="0.5">
            <g id="Error" transform="translate(218.000000, 134.000000)">
                <path d="M15.4172344,24 L8.58276563,24 C7.58109375,24 6.639375,23.6099063 5.93109375,22.901625 L1.098375,18.0689063 C0.39009375,17.360625 0,16.4189531 0,15.4172344 L0,8.58276563 C0,7.58109375 0.39009375,6.639375 1.098375,5.93109375 L5.93109375,1.098375 C6.639375,0.39009375 7.58104688,0 8.58276563,0 L15.4172812,0 C16.4189531,0 17.3606719,0.39009375 18.0689531,1.098375 L22.901625,5.93109375 C23.6099063,6.639375 24,7.58109375 24,8.58276563 L24,15.4172812 C24,16.4189531 23.6099063,17.3606719 22.901625,18.0689531 C22.5354844,18.4350938 21.9419062,18.4350938 21.5758125,18.0689531 C21.2097188,17.7028125 21.2096719,17.1092344 21.5758125,16.7431406 C21.9299531,16.389 22.125,15.9181406 22.125,15.4172812 L22.125,8.58276563 C22.125,8.08190625 21.9299531,7.61109375 21.5758125,7.25690625 L16.7430937,2.4241875 C16.3889531,2.07004688 15.9180938,1.875 15.4172344,1.875 L8.58276563,1.875 C8.08190625,1.875 7.61109375,2.07004688 7.25690625,2.4241875 L2.4241875,7.25690625 C2.07004688,7.61104687 1.875,8.08190625 1.875,8.58276563 L1.875,15.4172812 C1.875,15.9181406 2.07004688,16.3889531 2.4241875,16.7431406 L7.25690625,21.5758594 C7.61104687,21.93 8.08190625,22.1250469 8.58276563,22.1250469 L15.4172812,22.1250469 C15.9181406,22.1250469 16.3889531,21.93 16.7431406,21.5758594 L18.2454375,20.0735625 C18.6115781,19.7074219 19.2051562,19.7074219 19.57125,20.0735625 C19.9373438,20.4397031 19.9373906,21.0332813 19.57125,21.399375 L18.0689531,22.9016719 C17.360625,23.6099063 16.4189531,24 15.4172344,24 Z M12.9379687,18.140625 C12.9379687,17.6228438 12.51825,17.203125 12.0004687,17.203125 L12,17.203125 C11.4822188,17.203125 11.0627344,17.6228438 11.0627344,18.140625 C11.0627344,18.6584062 11.4826875,19.078125 12.0004687,19.078125 C12.51825,19.078125 12.9379687,18.6584062 12.9379687,18.140625 Z M12.9375,14.859375 L12.9375,5.625 C12.9375,5.10721875 12.5177812,4.6875 12,4.6875 C11.4822188,4.6875 11.0625,5.10721875 11.0625,5.625 L11.0625,14.859375 C11.0625,15.3771563 11.4822188,15.796875 12,15.796875 C12.5177812,15.796875 12.9375,15.3771563 12.9375,14.859375 Z" id="Shape"></path>
            </g>
        </g>
    </g>
</svg>