<?xml version="1.0" encoding="UTF-8"?>
<svg width="15px" height="10px" viewBox="0 0 15 10" version="1.1" xmlns="http://www.w3.org/2000/svg" xmlns:xlink="http://www.w3.org/1999/xlink">
    <!-- Generator: Sketch 54.1 (76490) - https://sketchapp.com -->
    <title>Eye@SVG</title>
    <desc>Created with Sketch.</desc>
    <g id="Enquire" stroke="none" stroke-width="1" fill="none" fill-rule="evenodd">
        <g id="Web-assets" transform="translate(-31.000000, -34.000000)" fill="#861F41" fill-rule="nonzero">
            <path d="M45.8269144,38.3377989 C44.3585835,35.7377446 41.6200465,34 38.5,34 C35.3786508,34 32.6407387,35.7389674 31.1730849,38.3377989 C30.942305,38.7464358 30.942305,39.2535913 31.1730849,39.6622283 C32.6414418,42.2622554 35.3799528,44 38.5,44 C41.6213485,44 44.3592606,42.2610326 45.8269144,39.6622011 C46.0576952,39.2535742 46.0576952,38.7464258 45.8269144,38.3377989 Z M38.4999997,42.6956522 C35.829275,42.6956522 33.4976383,41.209212 32.2500102,39 C33.3999301,36.9637772 35.47076,35.5415761 37.8792194,35.3313315 C38.1343232,35.6053804 38.2916667,35.9790761 38.2916667,36.3913043 C38.2916667,37.2317391 37.6387511,37.9130435 36.8333358,37.9130435 C36.0279205,37.9130435 35.3750049,37.2317391 35.3750049,36.3913043 L35.375031,36.390163 C35.1092241,36.9087772 34.958339,37.5011957 34.958339,38.1304348 C34.958339,40.1714946 36.5439873,41.826087 38.4999997,41.826087 C40.456012,41.826087 42.0416603,40.1714946 42.0416603,38.1304348 C42.0416603,37.2872011 41.7708275,36.5100815 41.3152293,35.8881793 C42.7631174,36.517337 43.9689748,37.6170109 44.7499891,39 C43.502387,41.209212 41.1707243,42.6956522 38.4999997,42.6956522 Z" id="Eye"></path>
        </g>
    </g>
</svg>