<?xml version="1.0" encoding="UTF-8"?>
<svg width="18px" height="18px" viewBox="0 0 18 18" version="1.1" xmlns="http://www.w3.org/2000/svg" xmlns:xlink="http://www.w3.org/1999/xlink">
    <!-- Generator: sketchtool 54.1 (76490) - https://sketchapp.com -->
    <title>335B3C95-2D53-4B5C-8A7D-6D8D7CAF8B13@SVG</title>
    <desc>Created with sketchtool.</desc>
    <g id="Approver---Dashboard" stroke="none" stroke-width="1" fill="none" fill-rule="evenodd">
        <g id="P1---Column-Actions" transform="translate(-7.000000, -151.000000)" fill-rule="nonzero" stroke="#9B9B9B">
            <g id="Group-11">
                <g id="Group-4" transform="translate(8.000000, 152.000000)">
                    <g id="filter-(1)">
                        <path d="M15.2878886,4.23516474e-22 L0.727817368,4.23516474e-22 C0.470854922,-0.000486015682 0.235427482,0.143050016 0.118037554,0.371638427 C-0.000971523316,0.603304893 0.0199158135,0.882276724 0.171955979,1.09385463 L5.50615287,8.61232313 C5.50793393,8.61491521 5.50987693,8.61734529 5.51165803,8.61993736 C5.70547279,8.88173669 5.81039507,9.19894159 5.81088083,9.52473268 L5.81088083,15.6544983 C5.8097474,15.8359434 5.88099092,16.0104223 6.00874354,16.1392159 C6.13665803,16.2678475 6.31055702,16.3404255 6.49190417,16.3404255 C6.58403498,16.3402635 6.67535623,16.321957 6.7605246,16.286478 L9.75793393,15.14305 C10.0263925,15.0609137 10.2046632,14.8073766 10.2046632,14.5021601 L10.2046632,9.52473268 C10.205149,9.19894159 10.3100713,8.88173669 10.5037241,8.61993736 C10.5055052,8.61734529 10.5074482,8.61491521 10.5092293,8.61232313 L15.8435881,1.09369263 C15.9956282,0.882276724 16.0165156,0.603466887 15.8975065,0.371800421 C15.7802785,0.143050016 15.5446891,-0.000486015682 15.2878886,4.23516474e-22 Z" id="Path"></path>
                    </g>
                </g>
            </g>
        </g>
    </g>
</svg>