<?xml version="1.0" encoding="UTF-8"?>
<svg width="16px" height="16px" viewBox="0 0 16 16" version="1.1" xmlns="http://www.w3.org/2000/svg" xmlns:xlink="http://www.w3.org/1999/xlink">
    <!-- Generator: sketchtool 54.1 (76490) - https://sketchapp.com -->
    <title>82F4BAA7-CC5C-4E9A-B618-9D5F9C32B1C0@SVG</title>
    <desc>Created with sketchtool.</desc>
    <g id="Enquire" stroke="none" stroke-width="1" fill="none" fill-rule="evenodd">
        <g id="Web-assets" transform="translate(-360.000000, -83.000000)">
            <g id="Icons/Account/Insufficient-Copy" transform="translate(360.000000, 83.000000)">
                <circle id="Oval" fill="#E6E6E6" cx="8" cy="8" r="8"></circle>
                <path d="M12.1864536,6.5136734 L8.00801937,11.0799392 C7.7740139,11.3356769 7.43830779,11.4866223 7.08235576,11.5 C7.0668182,11.5 7.05151599,11.5 7.03597843,11.5 C6.69532856,11.5 6.36880383,11.3722427 6.12702952,11.1432605 L3.87713965,9.01241077 C3.37428678,8.53616351 3.37428678,7.76672095 3.87713965,7.2906967 C4.37975705,6.81444944 5.1921846,6.81444944 5.69503746,7.2906967 L6.96911972,8.49736806 L10.2426071,4.91971665 C10.7080285,4.41069394 11.520456,4.35852081 12.0567383,4.79686447 C12.5927851,5.23632298 12.6506979,6.00598848 12.1864536,6.5136734 L12.1864536,6.5136734 Z" id="Path" fill="#6AC259" fill-rule="nonzero"></path>
            </g>
        </g>
    </g>
</svg>