<?xml version="1.0" encoding="UTF-8"?>
<svg width="24px" height="21px" viewBox="0 0 24 21" version="1.1" xmlns="http://www.w3.org/2000/svg" xmlns:xlink="http://www.w3.org/1999/xlink">
    <!-- Generator: Sketch 54.1 (76490) - https://sketchapp.com -->
    <title>Home@SVG</title>
    <desc>Created with Sketch.</desc>
    <g id="Enquire" stroke="none" stroke-width="1" fill="none" fill-rule="evenodd">
        <g id="Web-assets" transform="translate(-29.000000, -135.000000)" fill="#C8C8C8" fill-rule="nonzero" stroke="#C8C8C8" stroke-width="0.7">
            <path d="M51.8789795,145.669716 L40.9998377,136 L30.1210751,145.669716 C29.9678318,145.792119 29.9587282,145.998184 30.1013507,146.130027 C30.2432147,146.261544 30.4840799,146.269031 30.6373233,146.146955 L31.8962707,145.143648 L31.8962707,155 L37.9653153,155 L38.7297564,155 L38.7576708,155 L43.297821,155 L44.03436,155 L50.1034046,155 L50.1034046,145.143322 L51.3623521,146.146629 C51.4351806,146.2049 51.5281128,146.233548 51.6206658,146.233548 C51.7227016,146.233548 51.8239788,146.198715 51.8983246,146.129701 C52.0413264,145.998184 52.0322229,145.792119 51.8789795,145.669716 Z M38.7239459,147.140324 L43.2757294,147.140324 L43.2517548,154.348925 L38.7509425,154.348925 L38.7239459,147.140324 Z M49.344774,154.348925 L44.03436,154.348925 L44.03436,146.140324 L37.9653153,146.140324 L37.9653153,154.348925 L32.6549013,154.348925 L32.6549013,144.538799 L40.9998377,136.888392 L49.344774,144.538799 L49.344774,154.348925 Z" id="Home"></path>
        </g>
    </g>
</svg>