<?xml version="1.0" encoding="UTF-8"?>
<svg width="24px" height="21px" viewBox="0 0 24 21" version="1.1" xmlns="http://www.w3.org/2000/svg" xmlns:xlink="http://www.w3.org/1999/xlink">
    <!-- Generator: Sketch 54.1 (76490) - https://sketchapp.com -->
    <title>Home active@SVG</title>
    <desc>Created with Sketch.</desc>
    <g id="Enquire" stroke="none" stroke-width="1" fill="none" fill-rule="evenodd">
        <g id="Web-assets" transform="translate(-29.000000, -181.000000)" fill="#861F41" fill-rule="nonzero" stroke="#861F41" stroke-width="0.7">
            <path d="M51.8789795,191.669716 L40.9998377,182 L30.1210751,191.669716 C29.9678318,191.792119 29.9587282,191.998184 30.1013507,192.130027 C30.2432147,192.261544 30.4840799,192.269031 30.6373233,192.146955 L31.8962707,191.143648 L31.8962707,201 L37.9653153,201 L38.7297564,201 L38.7576708,201 L43.297821,201 L44.03436,201 L50.1034046,201 L50.1034046,191.143322 L51.3623521,192.146629 C51.4351806,192.2049 51.5281128,192.233548 51.6206658,192.233548 C51.7227016,192.233548 51.8239788,192.198715 51.8983246,192.129701 C52.0413264,191.998184 52.0322229,191.792119 51.8789795,191.669716 Z M38.7239459,193.140324 L43.2757294,193.140324 L43.2517548,200.348925 L38.7509425,200.348925 L38.7239459,193.140324 Z M49.344774,200.348925 L44.03436,200.348925 L44.03436,192.140324 L37.9653153,192.140324 L37.9653153,200.348925 L32.6549013,200.348925 L32.6549013,190.538799 L40.9998377,182.888392 L49.344774,190.538799 L49.344774,200.348925 Z" id="Home-active"></path>
        </g>
    </g>
</svg>