<?xml version="1.0" encoding="UTF-8"?>
<svg width="22px" height="19px" viewBox="0 0 22 19" version="1.1" xmlns="http://www.w3.org/2000/svg" xmlns:xlink="http://www.w3.org/1999/xlink">
    <!-- Generator: Sketch 54.1 (76490) - https://sketchapp.com -->
    <title>Initate active@SVG</title>
    <desc>Created with Sketch.</desc>
    <g id="Enquire" stroke="none" stroke-width="1" fill="none" fill-rule="evenodd">
        <g id="Web-assets" transform="translate(-170.000000, -181.000000)" fill="#861F41" fill-rule="nonzero" stroke="#861F41" stroke-width="0.2">
            <path d="M190.490859,193.671571 C190.77207,193.671571 191,193.892013 191,194.163987 L191,196.045546 C191,197.674627 189.629609,199 187.945195,199 L174.054805,199 C172.370391,199 171,197.674627 171,196.045546 L171,194.163987 C171,193.892013 171.22793,193.671571 171.509141,193.671571 C171.790352,193.671571 172.018281,193.892013 172.018281,194.163987 L172.018281,196.045546 C172.018281,197.131587 172.931875,198.015169 174.054805,198.015169 L187.945195,198.015169 C189.068125,198.015169 189.981719,197.131587 189.981719,196.045546 L189.981719,194.163987 C189.981719,193.892013 190.209727,193.671571 190.490859,193.671571 Z M187.399727,195.611727 C187.680898,195.611727 187.908828,195.832169 187.908828,196.104142 C187.908828,196.376115 187.680898,196.596557 187.399688,196.596557 L174.600273,196.596557 C174.319063,196.596557 174.091133,196.376115 174.091133,196.104142 C174.091133,195.832169 174.319141,195.611727 174.600273,195.611727 L187.399727,195.611727 Z M186.112578,185.997918 C186.322266,186.179145 186.340391,186.490371 186.153164,186.693208 C186.052539,186.802088 185.913203,186.857585 185.773242,186.857585 C185.652539,186.857585 185.531367,186.816255 185.434258,186.732347 L181.50918,183.341127 L181.50918,192.884553 C181.50918,193.156526 181.28125,193.376968 181.000039,193.376968 C180.718906,193.376968 180.490898,193.156526 180.490898,192.884553 L180.490898,183.341127 L176.56582,186.732347 C176.356016,186.913612 176.03418,186.895931 175.846875,186.69317 C175.659531,186.490333 175.677656,186.179032 175.887383,185.99788 L180.151992,182.313266 C180.635469,181.89554 181.364531,181.895616 181.847969,182.313266 L186.112578,185.997918 Z" id="Initate-active"></path>
        </g>
    </g>
</svg>