<?xml version="1.0" encoding="UTF-8"?>
<svg width="24px" height="15px" viewBox="0 0 24 15" version="1.1" xmlns="http://www.w3.org/2000/svg" xmlns:xlink="http://www.w3.org/1999/xlink">
    <!-- Generator: sketchtool 54.1 (76490) - https://sketchapp.com -->
    <title>6B9DB64C-BA07-4CA7-BD8C-519580EA7C81@SVG</title>
    <desc>Created with sketchtool.</desc>
    <g id="Enquire" stroke="none" stroke-width="1" fill="none" fill-rule="evenodd">
        <g id="Web-assets" transform="translate(-744.000000, -28.000000)" fill="#861F41" fill-rule="nonzero">
            <g id="send-(1)" transform="translate(744.000000, 28.000000)">
                <path d="M21.3524011,5.68434189e-14 L5.94685536,5.68434189e-14 C4.48693064,5.68434189e-14 3.29920957,1.17365325 3.29920957,2.61628607 L3.29920957,6.39710038 L0.758110856,6.39710038 C0.339422538,6.39710038 0,6.73254898 0,7.1462782 C0,7.56000741 0.339422538,7.8954097 0.758110856,7.8954097 L3.29920957,7.8954097 L3.29920957,9.90685071 L2.03137897,9.90685071 C1.61269065,9.90685071 1.27326811,10.242253 1.27326811,10.6559822 C1.27326811,11.0697114 1.61269065,11.4051137 2.03137897,11.4051137 L3.29916269,11.4051137 L3.29916269,12.3837139 C3.29916269,13.8263468 4.48688376,15 5.94680849,15 L21.3523542,15 C22.8122789,15 24,13.8263468 24,12.3837139 L24,2.61633239 C24.0000469,1.17369957 22.8123258,5.68434189e-14 21.3524011,5.68434189e-14 Z M5.94685536,1.49830932 L21.3524011,1.49830932 C21.6212766,1.49830932 21.8684021,1.59164389 22.0627462,1.74700079 L14.7046225,7.0824494 C14.0834806,7.53286396 13.2157758,7.53286396 12.594634,7.0824494 L5.23651023,1.74700079 C5.43080748,1.59164389 5.67797984,1.49830932 5.94685536,1.49830932 Z M22.4838252,12.3837139 C22.4838252,13.0001853 21.9763085,13.501737 21.3524011,13.501737 L5.94685536,13.501737 C5.32299477,13.501737 4.81543128,13.0002316 4.81543128,12.3837139 L4.81543128,11.4051137 L7.67021811,11.4051137 C8.08890642,11.4051137 8.42832896,11.0697114 8.42832896,10.6559822 C8.42832896,10.242253 8.08890642,9.90685071 7.67021811,9.90685071 L4.81543128,9.90685071 L4.81543128,3.30006022 L11.6976322,8.29037936 C12.2723208,8.70716569 12.9608691,8.91541989 13.6496048,8.91541989 C14.338153,8.91541989 15.0269825,8.70707305 15.6015773,8.29037936 L22.4838252,3.30006022 L22.4837783,12.3837139 L22.4838252,12.3837139 Z" id="Shape"></path>
            </g>
        </g>
    </g>
</svg>