<?xml version="1.0" encoding="UTF-8"?>
<svg width="16px" height="18px" viewBox="0 0 16 18" version="1.1" xmlns="http://www.w3.org/2000/svg" xmlns:xlink="http://www.w3.org/1999/xlink">
    <!-- Generator: sketchtool 54.1 (76490) - https://sketchapp.com -->
    <title>891C39FE-0A6D-4C7B-A5D8-A41BE5F4F941@SVG</title>
    <desc>Created with sketchtool.</desc>
    <g id="Enquire" stroke="none" stroke-width="1" fill="none" fill-rule="evenodd">
        <g id="Web-assets" transform="translate(-652.000000, -27.000000)" fill-rule="nonzero">
            <g id="pdf-file-format-symbol" transform="translate(648.000000, 24.000000)">
                <rect id="Rectangle" x="0" y="0" width="24" height="24"></rect>
                <path d="M8.23332515,12.2196915 C8.23332515,11.7351615 7.89634356,11.4459855 7.30166053,11.4459855 C7.05907566,11.4459855 6.89472393,11.469343 6.80853988,11.4927659 L6.80853988,13.0486388 C6.91042945,13.071735 7.03568098,13.0796407 7.20746012,13.0796407 C7.84193047,13.0796407 8.23332515,12.7592015 8.23332515,12.2196915 Z" id="Path" fill="#861F41"></path>
                <path d="M11.9141104,11.4616007 C11.6476074,11.4616007 11.4757628,11.4850236 11.3736115,11.5084791 L11.3736115,14.9556915 C11.4755665,14.9795064 11.6400164,14.9795064 11.7888262,14.9795064 C12.869137,14.9870526 13.5738241,14.3932486 13.5738241,13.1346207 C13.5817423,12.0398221 12.9395501,11.4616007 11.9141104,11.4616007 Z" id="Path" fill="#861F41"></path>
                <path d="M18.9669039,9.43619238 L18.5341513,9.43619238 L18.5341513,7.35145917 C18.5341513,7.33845735 18.53209,7.32535753 18.5303558,7.31219238 C18.5296687,7.22941198 18.5032965,7.14810163 18.4465276,7.08368058 L14.9717791,3.12067514 C14.9707321,3.11966243 14.9697178,3.11930309 14.968998,3.11819238 C14.9482863,3.09509619 14.9241391,3.07588748 14.8986176,3.05925953 C14.8910593,3.05419601 14.8834356,3.04994918 14.8755174,3.04557169 C14.8533988,3.03351724 14.8299387,3.02352087 14.8057914,3.01630127 C14.7992474,3.01447187 14.7933579,3.0117931 14.7868139,3.01009437 C14.7605726,3.00388748 14.733317,3 14.7057014,3 L6.16605317,3 C5.77609816,3 5.4593047,3.31664973 5.4593047,3.7056588 L5.4593047,9.43602904 L5.02665031,9.43602904 C4.46880982,9.43602904 4.0164908,9.88743376 4.0164908,10.4445844 L4.0164908,15.6892486 C4.0164908,16.2460073 4.46880982,16.697706 5.02665031,16.697706 L5.45933742,16.697706 L5.45933742,20.2878403 C5.45933742,20.6768167 5.77613088,20.9934991 6.16608589,20.9934991 L17.8274356,20.9934991 C18.2170307,20.9934991 18.534184,20.6768494 18.534184,20.2878403 L18.534184,16.697706 L18.9669366,16.697706 C19.5246135,16.697706 19.9770307,16.2460073 19.9770307,15.6892486 L19.9770307,10.4447477 C19.976998,9.88762976 19.5245808,9.43619238 18.9669039,9.43619238 Z M6.69919322,4.22391036 L14.3523272,4.22391036 L14.3523272,7.31601452 C14.3523272,7.51094374 14.5107239,7.66882759 14.7057014,7.66882759 L17.2970514,7.66882759 L17.2970514,9.43642105 L6.69919322,9.43642105 L6.69919322,4.22391036 Z M14.8420123,13.0951252 C14.8420123,14.1037786 14.4741431,14.799245 13.9644663,15.2294156 C13.4091779,15.690588 12.5634029,15.9093648 11.5302413,15.9093648 C10.9118364,15.9093648 10.4734888,15.8702613 10.1756074,15.8313212 L10.1756074,10.6562069 C10.6140204,10.5860036 11.1859305,10.5469002 11.7888262,10.5469002 C12.7904458,10.5469002 13.4404581,10.7268348 13.9496115,11.109637 C14.4974397,11.5161887 14.8420123,12.1648748 14.8420123,13.0951252 Z M5.62617587,15.8547768 L5.62617587,10.6562069 C5.99397955,10.5940073 6.51098569,10.5469002 7.23913292,10.5469002 C7.97503476,10.5469002 8.49973006,10.6876334 8.85192638,10.9692305 C9.18867894,11.234853 9.41519836,11.6727005 9.41519836,12.188657 C9.41519836,12.7047768 9.24341922,13.1424936 8.92999591,13.4393466 C8.52289571,13.8224755 7.92009816,13.9945699 7.21524744,13.9945699 C7.05891207,13.9945699 6.91749693,13.9866316 6.80837628,13.970951 L6.80837628,15.8549074 L5.62617587,15.8549074 L5.62617587,15.8547768 Z M17.3,19.7006652 L6.70014711,19.7006652 L6.70014711,16.697706 L17.3,16.697706 L17.3,19.7006652 Z M18.8514683,11.5631325 L16.8231984,11.5631325 L16.8231984,12.7669764 L18.7181022,12.7669764 L18.7181022,13.736363 L16.8231984,13.736363 L16.8231984,15.8548094 L15.6258814,15.8548094 L15.6258814,10.5860036 L18.8514683,10.5860036 L18.8514683,11.5631325 Z" id="Shape" fill="#861F41"></path>
            </g>
        </g>
    </g>
</svg>