<?xml version="1.0" encoding="UTF-8"?>
<svg width="22px" height="16px" viewBox="0 0 22 16" version="1.1" xmlns="http://www.w3.org/2000/svg" xmlns:xlink="http://www.w3.org/1999/xlink">
    <!-- Generator: sketchtool 54.1 (76490) - https://sketchapp.com -->
    <title>BDC26F38-5809-43E7-BC8C-D7CC707944AD@SVG</title>
    <desc>Created with sketchtool.</desc>
    <g id="Enquire" stroke="none" stroke-width="1" fill="none" fill-rule="evenodd">
        <g id="Web-assets" transform="translate(-354.000000, -31.000000)" fill="#861F41" fill-rule="nonzero">
            <g id="Icons/Send" transform="translate(353.000000, 31.000000)">
                <path d="M22.7095004,0.620934797 C22.4226861,0.22480098 21.9705581,-4.51520927e-05 21.5000222,6.80109249e-09 C21.3783434,6.80109249e-09 21.2554167,0.0150379184 21.133827,0.0460620785 L2.1339753,4.89188234 C1.54599492,5.04176471 1.10500962,5.53562237 1.01617966,6.14323529 C0.927527975,6.75089336 1.20850344,7.35290658 1.72837937,7.66888336 L5.74614136,10.1113473 L5.74614136,15.4691339 C5.74614136,15.6718974 5.8601985,15.8569585 6.03995327,15.946057 C6.21975261,16.0351103 6.43396075,16.0126212 6.59187573,15.888073 L10.3602185,12.916392 L13.455896,14.7982534 C13.6974262,14.9451101 13.9634704,15.0150612 14.2262609,15.0150612 C14.7302695,15.0150612 15.2220212,14.7577007 15.5051806,14.2914803 L22.7774711,2.31633515 C23.0973125,1.78978245 23.0703916,1.11944383 22.7095004,0.620934797 Z M14.1364058,13.1164007 L9.42578788,10.2526495 L14.2048222,6.08019347 C14.2717678,6.02175786 14.2874568,5.92304052 14.2419944,5.84631556 C14.1966212,5.7695906 14.1032895,5.7370762 14.0209224,5.7693648 L6.74154509,8.62092315 L3.20595198,6.47149529 L20.9145824,1.95501884 L14.1364058,13.1164007 Z" id="Shape"></path>
            </g>
        </g>
    </g>
</svg>