<?xml version="1.0" encoding="UTF-8"?>
<svg width="26px" height="26px" viewBox="0 0 26 26" version="1.1" xmlns="http://www.w3.org/2000/svg" xmlns:xlink="http://www.w3.org/1999/xlink">
    <!-- Generator: sketchtool 54.1 (76490) - https://sketchapp.com -->
    <title>9214D201-17C8-4E94-ADBA-057440673A1A@SVG</title>
    <desc>Created with sketchtool.</desc>
    <g id="Enquire" stroke="none" stroke-width="1" fill="none" fill-rule="evenodd">
        <g id="Web-assets" transform="translate(-269.000000, -133.000000)" fill="#4CAF50" fill-rule="nonzero" stroke="#4CAF50">
            <g id="Success" transform="translate(270.000000, 134.000000)">
                <path d="M11.1522692,16.3064423 L11.1522692,16.3064423 C10.881,16.3064423 10.6398462,16.1858654 10.4891538,16.0050577 L5.93780769,11.0618654 C5.60625,10.7001923 5.63642308,10.1274808 5.99809615,9.79592308 C6.35976923,9.46436538 6.93248077,9.49453846 7.26403846,9.85621154 L11.1823846,14.1061154 L22.0332692,3.28540385 C22.3949423,2.92373077 22.9676538,2.92373077 23.2992115,3.28540385 C23.6608846,3.64707692 23.6608846,4.21978846 23.2992115,4.55134615 L11.7852692,16.0351731 C11.6345192,16.2160385 11.3934231,16.3064423 11.1522692,16.3064423 Z" id="Path"></path>
                <path d="M11.99625,23.9924423 C5.39526923,23.9924423 0,18.5971731 0,11.99625 C0,5.39532692 5.39526923,0 11.99625,0 C12.5086731,0 12.9004615,0.391846154 12.9004615,0.904211538 C12.9004615,1.41657692 12.5086154,1.80842308 11.99625,1.80842308 C6.38994231,1.80842308 1.80848077,6.38988462 1.80848077,11.9961923 C1.80848077,17.6025 6.38994231,22.1839615 11.99625,22.1839615 C17.6025577,22.1839615 22.1840192,17.6025 22.1840192,11.9961923 C22.1840192,11.4837692 22.5758654,11.0919808 23.0882308,11.0919808 C23.6005962,11.0919808 23.9924423,11.4838269 23.9924423,11.9961923 C23.9924423,18.5971731 18.5971731,23.9924423 11.99625,23.9924423 Z" id="Path"></path>
            </g>
        </g>
    </g>
</svg>