<?xml version="1.0" encoding="UTF-8"?>
<svg width="16px" height="18px" viewBox="0 0 16 18" version="1.1" xmlns="http://www.w3.org/2000/svg" xmlns:xlink="http://www.w3.org/1999/xlink">
    <!-- Generator: sketchtool 54.1 (76490) - https://sketchapp.com -->
    <title>70BB88AE-9C55-4E81-AF3D-D964C5B86EBE@SVG</title>
    <desc>Created with sketchtool.</desc>
    <g id="Enquire" stroke="none" stroke-width="1" fill="none" fill-rule="evenodd">
        <g id="Web-assets" transform="translate(-716.000000, -27.000000)" fill-rule="nonzero">
            <g id="txt-file-symbol" transform="translate(712.000000, 24.000000)">
                <rect id="Rectangle" x="0" y="0" width="24" height="24"></rect>
                <path d="M18.9860412,9.43029508 L18.5525926,9.43029508 L18.5525926,7.34721311 C18.5525926,7.33422951 18.5505514,7.32114754 18.5488066,7.308 C18.5481152,7.22527869 18.5216461,7.14406557 18.4647901,7.07970492 L14.9845926,3.12055738 C14.9610535,3.09501639 14.9368889,3.07580328 14.9112428,3.05921311 C14.9037037,3.05416393 14.8960658,3.04993443 14.8881317,3.0455082 C14.8660082,3.0335082 14.8424691,3.0235082 14.8183045,3.0162623 C14.8117202,3.01445902 14.8058272,3.01186885 14.7993086,3.01009836 C14.7730041,3.00386885 14.7457119,3 14.7180905,3 L6.16483951,3 C5.77428807,3 5.45698765,3.31636066 5.45698765,3.70498361 L5.45698765,9.43009836 L5.02353909,9.43009836 C4.46492181,9.43009836 4.01188477,9.88101639 4.01188477,10.4376393 L4.01188477,15.677377 C4.01188477,16.2334754 4.46492181,16.6849508 5.02353909,16.6849508 L5.45698765,16.6849508 L5.45698765,20.2718033 C5.45698765,20.660459 5.77428807,20.9767541 6.16483951,20.9767541 L17.8447078,20.9767541 C18.23493,20.9767541 18.5525597,20.660459 18.5525597,20.2718033 L18.5525597,16.6849836 L18.9860082,16.6849836 C19.5445597,16.6849836 19.9976626,16.2337049 19.9976626,15.6774098 L19.9976626,10.4378361 C19.9976955,9.88104918 19.5445926,9.43029508 18.9860412,9.43029508 Z M6.8,4.29751398 L14.3641481,4.29751398 L14.3641481,7.3117377 C14.3641481,7.50659016 14.5227325,7.66422951 14.7180905,7.66422951 L17.3020909,7.66422951 L17.3020909,9.4302623 L6.8,9.4302623 L6.8,4.29751398 Z M9.65642798,10.3784262 L11.0286091,10.3784262 L11.4915885,11.339082 C11.6481646,11.6589508 11.7660247,11.9168525 11.8914897,12.2137049 L11.9072922,12.2137049 C12.0323292,11.8779016 12.1344527,11.6434754 12.267786,11.339082 L12.7150947,10.3784262 L14.0796708,10.3784262 L12.5895967,12.9477049 L14.1579259,15.6422951 L12.7776132,15.6422951 L12.2994239,14.6895082 C12.1033416,14.3223934 11.9777449,14.0492459 11.8286749,13.7444262 L11.8129383,13.7444262 C11.703177,14.0492459 11.5699424,14.3223934 11.4053333,14.6895082 L10.9662881,15.6422951 L9.6015144,15.6422951 L11.1308971,12.9792131 L9.65642798,10.3784262 Z M5.15489712,11.3780984 L5.15489712,10.378459 L9.21685597,10.378459 L9.21685597,11.3780984 L7.77395885,11.3780984 L7.77395885,15.642 L6.5744856,15.642 L6.5744856,11.3780984 L5.15489712,11.3780984 Z M17.3,19.6 L6.80263738,19.6 L6.80263738,16.6849836 L17.3,16.6849836 L17.3,19.6 Z M17.0677531,11.3780984 L17.0677531,15.642 L15.8680165,15.642 L15.8680165,11.3780984 L14.4484609,11.3780984 L14.4484609,10.378459 L18.5107819,10.378459 L18.5107819,11.3780984 L17.0677531,11.3780984 Z" id="Shape" fill="#861F41"></path>
            </g>
        </g>
    </g>
</svg>