<?xml version="1.0" encoding="UTF-8"?>
<svg width="16px" height="16px" viewBox="0 0 16 16" version="1.1" xmlns="http://www.w3.org/2000/svg" xmlns:xlink="http://www.w3.org/1999/xlink">
    <!-- Generator: sketchtool 54.1 (76490) - https://sketchapp.com -->
    <title>35A7E745-AB78-4362-900B-D839A10B0085@SVG</title>
    <desc>Created with sketchtool.</desc>
    <g id="Enquire" stroke="none" stroke-width="1" fill="none" fill-rule="evenodd">
        <g id="Web-assets" transform="translate(-1039.000000, -126.000000)" fill="#861F41" fill-rule="nonzero">
            <g id="Competed" transform="translate(996.000000, 126.000000)">
                <path d="M47.72,6.48 L46.6,7.6 L50.2,11.2 L58.2,3.2 L57.08,2.08 L50.2,8.96 L47.72,6.48 Z M57.4,8 C57.4,11.52 54.52,14.4 51,14.4 C47.48,14.4 44.6,11.52 44.6,8 C44.6,4.48 47.48,1.6 51,1.6 C51.64,1.6 52.2,1.68 52.76,1.84 L54.0400314,0.56 C53.08,0.24 52.04,0 51,0 C46.6,0 43,3.6 43,8 C43,12.4 46.6,16 51,16 C55.4,16 59,12.4 59,8 L57.4,8 Z" id="Shape"></path>
            </g>
        </g>
    </g>
</svg>