<?xml version="1.0" encoding="UTF-8"?>
<svg width="16px" height="18px" viewBox="0 0 16 18" version="1.1" xmlns="http://www.w3.org/2000/svg" xmlns:xlink="http://www.w3.org/1999/xlink">
    <!-- Generator: sketchtool 54.1 (76490) - https://sketchapp.com -->
    <title>4F9BBBB8-F2D3-4EE4-BD95-E7724314EFE1@SVG</title>
    <desc>Created with sketchtool.</desc>
    <g id="Enquire" stroke="none" stroke-width="1" fill="none" fill-rule="evenodd">
        <g id="Web-assets" transform="translate(-684.000000, -27.000000)" fill-rule="nonzero">
            <g id="xlsx-file-format-extension" transform="translate(680.000000, 24.000000)">
                <rect id="Rectangle" x="0" y="0" width="24" height="24"></rect>
                <path d="M18.9862058,9.43019672 L18.5527572,9.43019672 L18.5527572,7.34740984 C18.5527572,7.33442623 18.550716,7.32134426 18.5491687,7.30806557 C18.5484774,7.22544262 18.5218765,7.14422951 18.4650206,7.07986885 L14.9845926,3.12055738 C14.9835062,3.11954098 14.9824856,3.11918033 14.9817942,3.11809836 C14.9610535,3.09501639 14.9368889,3.07580328 14.9112428,3.05921311 C14.9037037,3.05416393 14.8960658,3.04993443 14.8881317,3.04547541 C14.8660082,3.0335082 14.8424691,3.02344262 14.8183045,3.01619672 C14.8117202,3.0144918 14.8058272,3.01180328 14.7993086,3.01009836 C14.7730041,3.00386885 14.7457119,3 14.7180905,3 L6.16483951,3 C5.77428807,3 5.45698765,3.31636066 5.45698765,3.70498361 L5.45698765,9.43 L5.02360494,9.43 C4.46488889,9.43 4.01185185,9.88101639 4.01185185,10.4376393 L4.01185185,15.677377 C4.01185185,16.2334754 4.46488889,16.6849508 5.02360494,16.6849508 L5.45698765,16.6849508 L5.45698765,20.2718033 C5.45698765,20.660459 5.77428807,20.9767541 6.16483951,20.9767541 L17.8447078,20.9767541 C18.23493,20.9767541 18.5525597,20.660459 18.5525597,20.2718033 L18.5525597,16.6849836 L18.9860082,16.6849836 C19.5445597,16.6849836 19.9976626,16.2337049 19.9976626,15.6774098 L19.9976626,10.4378361 C19.9976955,9.88104918 19.5448889,9.43019672 18.9862058,9.43019672 Z M6.69712361,4.2968026 L14.3641481,4.2968026 L14.3641481,7.3117377 C14.3641481,7.5064918 14.5227325,7.66422951 14.7180905,7.66422951 L17.2978937,7.66422951 L17.2978937,9.43016393 L6.69712361,9.43016393 L6.69712361,4.2968026 Z M13.3358354,13.3167541 C12.6403951,13.0754754 12.1866008,12.6923279 12.1866008,12.0858033 C12.1866008,11.3743934 12.7828148,10.8301639 13.7706667,10.8301639 C14.2424691,10.8301639 14.5905185,10.9289836 14.838716,11.0404262 L14.6276543,11.801082 C14.4600494,11.7208852 14.1619424,11.6031475 13.752,11.6031475 C13.3420576,11.6031475 13.1433416,11.7887869 13.1433416,12.0053115 C13.1433416,12.271377 13.3794239,12.3887869 13.9196379,12.5928852 C14.6586008,12.8651803 15.0064856,13.248623 15.0064856,13.8361967 C15.0064856,14.5353115 14.4660741,15.1291475 13.3170041,15.1291475 C12.8388477,15.1291475 12.3668477,15.0055738 12.1307984,14.8754754 L12.3231605,14.0961311 C12.5779095,14.2259016 12.9693169,14.3560328 13.3728724,14.3560328 C13.8080329,14.3560328 14.0374979,14.1766885 14.0374979,13.9044262 C14.0376626,13.6448197 13.8389465,13.4960656 13.3358354,13.3167541 Z M11.733893,14.2754098 L11.733893,15.0674426 L9.11861728,15.0674426 L9.11861728,10.8977705 L10.0693004,10.8977705 L10.0693004,14.2754098 L11.733893,14.2754098 Z M6.08187654,15.0674426 L5.00118519,15.0674426 L6.21231276,12.9575082 L5.04447737,10.8976066 L6.13158848,10.8976066 L6.49784362,11.6585902 C6.62209053,11.9122295 6.7153251,12.1160984 6.81481481,12.351541 L6.82689712,12.351541 C6.92655144,12.0854754 7.00720988,11.8999016 7.11249383,11.6585902 L7.46660082,10.8976066 L8.5473251,10.8976066 L7.36714403,12.9325574 L8.60961317,15.067082 L7.51654321,15.067082 L7.13744856,14.3122623 C6.98241975,14.0219344 6.88296296,13.8052131 6.76490535,13.5639344 L6.75255967,13.5639344 C6.66548148,13.8052131 6.56013169,14.0219344 6.42956379,14.3122623 L6.08187654,15.0674426 Z M17.2980579,19.7468481 L6.69827304,19.7468481 L6.69827304,16.6849836 L17.2980579,16.6849836 L17.2980579,19.7468481 Z M17.8511276,15.0674426 L17.4721317,14.312623 C17.3169053,14.0220328 17.2175473,13.8055738 17.0994897,13.5642623 L17.0874403,13.5642623 C17.0003292,13.8055738 16.8945844,14.0220328 16.7639177,14.312623 L16.4165597,15.0674426 L15.3355391,15.0674426 L16.5466667,12.9575082 L15.3788971,10.8976066 L16.4659753,10.8976066 L16.8326914,11.6585902 C16.9568066,11.9122295 17.0497449,12.1160984 17.1493333,12.351541 L17.1617449,12.351541 C17.2609383,12.0854754 17.341465,11.8999016 17.4472099,11.6585902 L17.8011852,10.8976066 L18.8821728,10.8976066 L17.7019588,12.9325574 L18.9441975,15.067082 L17.8511276,15.067082 L17.8511276,15.0674426 Z" id="Shape" fill="#861F41"></path>
            </g>
        </g>
    </g>
</svg>